<svg width="70" height="196" viewBox="0 0 70 196" fill="none" xmlns="http://www.w3.org/2000/svg">
<path d="M43.012 196C33.9599 196 26.9833 193.524 22.0821 188.573C17.814 184.267 15.68 178.789 15.68 172.139C15.68 163.241 18.541 156.734 24.263 152.62C27.4757 150.348 30.7002 149.127 33.9365 148.96L33.9365 160.011C31.4507 160.729 29.5746 161.65 28.3083 162.774C26.057 164.784 24.9314 167.762 24.9314 171.709C24.9314 175.727 26.526 178.897 29.7153 181.217C32.8813 183.537 37.3722 184.697 43.1877 184.697C49.0035 184.697 53.3654 183.478 56.2733 181.038C59.1579 178.574 60.6002 175.452 60.6002 171.673C60.6002 167.798 59.3573 164.843 56.8712 162.81C55.5345 161.686 53.5298 160.753 50.8563 160.011L50.8563 149.068C56.5078 150.025 61.1042 152.476 64.6454 156.423C68.1863 160.346 69.9569 165.382 69.9569 171.529C69.9569 179.136 67.565 185.116 62.781 189.47C57.9735 193.823 51.3837 196 43.012 196Z" fill="#F2F2F2"/>
<path d="M29.2786 125.469C29.2786 123.032 29.6905 120.824 30.5145 118.845C31.3382 116.842 32.5974 115.201 34.292 113.922C35.7279 112.836 37.2107 112.173 38.7408 111.931C40.247 111.69 42.7185 111.569 46.1548 111.569L68.7508 111.569L68.7508 122.103L45.3428 122.103C43.2716 122.103 41.6004 122.465 40.3295 123.189C38.5406 124.13 37.6462 125.915 37.6462 128.546C37.6462 131.272 38.5406 133.348 40.3295 134.771C42.0946 136.171 44.625 136.871 47.9202 136.871L68.7508 136.871L68.7508 147.151L16.8862 147.151L16.8862 136.871L35.2807 136.871C33.0446 135.375 31.491 133.649 30.6204 131.695C29.7258 129.716 29.2786 127.641 29.2786 125.469Z" fill="#F2F2F2"/>
<path d="M25.5878 97.6984L25.5878 102.825L25.5878 107.951L16.2831 107.951L16.2831 97.6984L25.5878 97.6984ZM30.1871 107.951L30.1871 97.6984L68.7508 97.6984L68.7508 107.951L30.1871 107.951Z" fill="#F2F2F2"/>
<path d="M29.5508 49.7508C29.5508 48.0113 29.8792 46.2954 30.5361 44.6039C31.1927 42.9124 32.3425 41.378 33.9844 40.0007C35.3216 38.8892 36.9638 38.14 38.9108 37.7534C40.2012 37.5119 42.0897 37.3908 44.5764 37.3908L68.7508 37.4636L68.7508 48.0473L44.3301 48.0473C42.8756 48.0473 41.6791 48.2891 40.7409 48.7721C38.9579 49.6904 38.0665 51.3819 38.0665 53.8467C38.0665 56.698 39.2159 58.6674 41.5147 59.7548C42.7346 60.3105 44.2008 60.5884 45.9135 60.5884L68.7508 60.5884L68.7508 70.9913L45.9136 70.9913C43.6378 70.9913 41.9842 71.2328 40.9517 71.7161C39.0986 72.5861 38.1721 74.2896 38.1721 76.8267C38.1721 79.7748 39.0986 81.7565 40.9517 82.7712C42.0076 83.3269 43.5793 83.6048 45.667 83.6048L68.7508 83.6048L68.7508 94.0801L30.4656 94.0801L30.4656 84.0397L36.0607 84.0397C34.0666 82.7592 32.6472 81.551 31.8028 80.4152C30.3016 78.4095 29.5508 75.812 29.5508 72.6224C29.5508 69.6017 30.196 67.1613 31.4861 65.3007C32.6826 63.8023 34.2189 62.6668 36.0958 61.8933C33.8437 60.5403 32.1898 58.8608 31.1342 56.8551C30.0786 54.7286 29.5508 52.3606 29.5508 49.7508Z" fill="#F2F2F2"/>
<path d="M37.7719 18.7189C37.772 21.1072 38.4948 22.9648 39.9408 24.2915C41.3868 25.5942 43.3461 26.4144 45.8182 26.752L45.8182 10.7221C43.1826 10.8909 41.1888 11.7231 39.8358 13.2186C38.4599 14.6902 37.7719 16.5237 37.7719 18.7189ZM29.5507 18.7189C29.5507 15.4381 30.1455 12.483 31.3348 9.85358C32.5244 7.22415 34.4019 5.05294 36.9674 3.33995C39.2296 1.79612 41.8535 0.795112 44.8386 0.336562C46.5879 0.0714867 49.1068 -0.0370759 52.3952 0.0108747L52.3952 27.0055C56.22 26.8606 58.902 25.6181 60.4414 23.2784C61.3978 21.8552 61.8758 20.1422 61.8758 18.1398C61.8758 16.0172 61.2928 14.2922 60.1265 12.9655C59.497 12.2416 58.6223 11.6025 57.5029 11.0477L57.5029 0.517707C59.7651 0.783114 62.0625 2.00126 64.3948 4.17246C68.103 7.54983 69.9569 12.2779 69.9569 18.3569C69.9569 23.3747 68.3943 27.8013 65.2691 31.6373C62.1439 35.4728 57.0597 37.3906 50.0164 37.3906C43.4161 37.3906 38.3549 35.666 34.8334 32.216C31.3116 28.7424 29.5508 24.2432 29.5507 18.7189Z" fill="#F2F2F2"/>
<path d="M26.5354 103.126C26.5354 95.7988 20.5952 89.8587 13.2677 89.8587C5.94015 89.8587 -9.00246e-07 95.7988 -5.79949e-07 103.126C-2.59652e-07 110.454 5.94015 116.394 13.2677 116.394C20.5952 116.394 26.5354 110.454 26.5354 103.126Z" fill="#F2F2F2"/>
</svg>
