<svg width="146" height="1080" viewBox="0 0 146 1080" fill="none" xmlns="http://www.w3.org/2000/svg">
<rect x="97" y="920" width="10" height="160" fill="#FF3B30"/>
<rect x="109" y="920" width="10" height="160" fill="#FF3B30"/>
<rect x="121" y="920" width="10" height="160" fill="#FF3B30"/>
<rect x="133" y="920" width="10" height="160" fill="#FF3B30"/>
<g filter="url(#filter0_d)">
<rect x="12" y="920" width="46" height="160" fill="#FFCC00"/>
<rect x="24" y="920" width="10" height="160" fill="#FFCC00"/>
<rect x="36" y="920" width="10" height="160" fill="#FFCC00"/>
<rect x="48" y="920" width="10" height="160" fill="#FFCC00"/>
</g>
<rect x="97" width="10" height="160" fill="#4CD964"/>
<rect x="109" width="10" height="160" fill="#4CD964"/>
<rect x="121" width="10" height="160" fill="#4CD964"/>
<rect x="133" width="10" height="160" fill="#4CD964"/>
<rect x="12" width="10" height="160" fill="#2D9CDB"/>
<rect x="24" width="10" height="160" fill="#2D9CDB"/>
<rect x="36" width="10" height="160" fill="#2D9CDB"/>
<rect x="48" width="10" height="160" fill="#2D9CDB"/>
<path fill-rule="evenodd" clip-rule="evenodd" d="M55.3232 198.323C55.3232 186.547 45.7764 177 33.9998 177C22.2233 177 12.6765 186.547 12.6765 198.323C12.6765 210.1 22.2233 219.647 33.9998 219.647C45.7764 219.647 55.3232 210.1 55.3232 198.323ZM15.6177 198.323C15.6177 188.171 23.8476 179.941 33.9998 179.941C44.152 179.941 52.382 188.171 52.382 198.323C52.382 208.476 44.152 216.706 33.9998 216.706C23.8476 216.706 15.6177 208.476 15.6177 198.323Z" fill="#F2F2F2"/>
<path fill-rule="evenodd" clip-rule="evenodd" d="M26.1587 198.77L9.2859 221.717C8.80478 222.371 8.94519 223.292 9.59952 223.773C10.2538 224.254 11.1743 224.113 11.6554 223.459L28.5286 200.512C28.6351 200.523 28.7433 200.529 28.8529 200.529C30.4772 200.529 31.794 199.212 31.794 197.588C31.794 195.964 30.4772 194.647 28.8529 194.647C27.2285 194.647 25.9117 195.964 25.9117 197.588C25.9117 198.008 25.9999 198.408 26.1587 198.77Z" fill="#F2F2F2"/>
<path fill-rule="evenodd" clip-rule="evenodd" d="M39.4712 200.512L56.3443 223.459C56.8254 224.113 57.7459 224.254 58.4002 223.773C59.0545 223.292 59.1949 222.371 58.7138 221.717L41.841 198.77C41.9999 198.408 42.088 198.008 42.088 197.588C42.088 195.964 40.7712 194.647 39.1469 194.647C37.5225 194.647 36.2057 195.964 36.2057 197.588C36.2057 199.212 37.5225 200.529 39.1469 200.529C39.2565 200.529 39.3647 200.523 39.4712 200.512Z" fill="#F2F2F2"/>
<path fill-rule="evenodd" clip-rule="evenodd" d="M58.3232 873.323C58.3232 861.547 48.7764 852 36.9998 852C25.2233 852 15.6765 861.547 15.6765 873.323C15.6765 885.1 25.2233 894.647 36.9998 894.647C48.7764 894.647 58.3232 885.1 58.3232 873.323ZM18.6177 873.323C18.6177 863.171 26.8476 854.941 36.9998 854.941C47.152 854.941 55.382 863.171 55.382 873.323C55.382 883.476 47.152 891.706 36.9998 891.706C26.8476 891.706 18.6177 883.476 18.6177 873.323Z" fill="#F2F2F2"/>
<path fill-rule="evenodd" clip-rule="evenodd" d="M29.1587 873.77L12.2859 896.717C11.8048 897.371 11.9452 898.292 12.5995 898.773C13.2538 899.254 14.1743 899.113 14.6554 898.459L31.5286 875.512C31.6351 875.523 31.7433 875.529 31.8529 875.529C33.4772 875.529 34.794 874.212 34.794 872.588C34.794 870.964 33.4772 869.647 31.8529 869.647C30.2285 869.647 28.9117 870.964 28.9117 872.588C28.9117 873.008 28.9999 873.408 29.1587 873.77Z" fill="#F2F2F2"/>
<path fill-rule="evenodd" clip-rule="evenodd" d="M42.4712 875.512L59.3443 898.459C59.8254 899.113 60.7459 899.254 61.4002 898.773C62.0545 898.292 62.1949 897.371 61.7138 896.717L44.841 873.77C44.9999 873.408 45.088 873.008 45.088 872.588C45.088 870.964 43.7712 869.647 42.1469 869.647C40.5225 869.647 39.2057 870.964 39.2057 872.588C39.2057 874.212 40.5225 875.529 42.1469 875.529C42.2565 875.529 42.3647 875.523 42.4712 875.512Z" fill="#F2F2F2"/>
<path fill-rule="evenodd" clip-rule="evenodd" d="M142.323 873.323C142.323 861.547 132.776 852 121 852C109.223 852 99.6765 861.547 99.6765 873.323C99.6765 885.1 109.223 894.647 121 894.647C132.776 894.647 142.323 885.1 142.323 873.323ZM102.618 873.323C102.618 863.171 110.848 854.941 121 854.941C131.152 854.941 139.382 863.171 139.382 873.323C139.382 883.476 131.152 891.706 121 891.706C110.848 891.706 102.618 883.476 102.618 873.323Z" fill="#F2F2F2"/>
<path fill-rule="evenodd" clip-rule="evenodd" d="M113.159 873.77L96.2859 896.717C95.8048 897.371 95.9452 898.292 96.5995 898.773C97.2538 899.254 98.1743 899.113 98.6554 898.459L115.529 875.512C115.635 875.523 115.743 875.529 115.853 875.529C117.477 875.529 118.794 874.212 118.794 872.588C118.794 870.964 117.477 869.647 115.853 869.647C114.229 869.647 112.912 870.964 112.912 872.588C112.912 873.008 113 873.408 113.159 873.77Z" fill="#F2F2F2"/>
<path fill-rule="evenodd" clip-rule="evenodd" d="M126.471 875.512L143.344 898.459C143.825 899.113 144.746 899.254 145.4 898.773C146.055 898.292 146.195 897.371 145.714 896.717L128.841 873.77C129 873.408 129.088 873.008 129.088 872.588C129.088 870.964 127.771 869.647 126.147 869.647C124.523 869.647 123.206 870.964 123.206 872.588C123.206 874.212 124.523 875.529 126.147 875.529C126.256 875.529 126.365 875.523 126.471 875.512Z" fill="#F2F2F2"/>
<path fill-rule="evenodd" clip-rule="evenodd" d="M142.323 198.323C142.323 186.547 132.776 177 121 177C109.223 177 99.6765 186.547 99.6765 198.323C99.6765 210.1 109.223 219.647 121 219.647C132.776 219.647 142.323 210.1 142.323 198.323ZM102.618 198.323C102.618 188.171 110.848 179.941 121 179.941C131.152 179.941 139.382 188.171 139.382 198.323C139.382 208.476 131.152 216.706 121 216.706C110.848 216.706 102.618 208.476 102.618 198.323Z" fill="#F2F2F2"/>
<path fill-rule="evenodd" clip-rule="evenodd" d="M113.159 198.77L96.2859 221.717C95.8048 222.371 95.9452 223.292 96.5995 223.773C97.2538 224.254 98.1743 224.113 98.6554 223.459L115.529 200.512C115.635 200.523 115.743 200.529 115.853 200.529C117.477 200.529 118.794 199.212 118.794 197.588C118.794 195.964 117.477 194.647 115.853 194.647C114.229 194.647 112.912 195.964 112.912 197.588C112.912 198.008 113 198.408 113.159 198.77Z" fill="#F2F2F2"/>
<path fill-rule="evenodd" clip-rule="evenodd" d="M126.471 200.512L143.344 223.459C143.825 224.113 144.746 224.254 145.4 223.773C146.055 223.292 146.195 222.371 145.714 221.717L128.841 198.77C129 198.408 129.088 198.008 129.088 197.588C129.088 195.964 127.771 194.647 126.147 194.647C124.523 194.647 123.206 195.964 123.206 197.588C123.206 199.212 124.523 200.529 126.147 200.529C126.256 200.529 126.365 200.523 126.471 200.512Z" fill="#F2F2F2"/>
<defs>
<filter id="filter0_d" x="0" y="910" width="70" height="184" filterUnits="userSpaceOnUse" color-interpolation-filters="sRGB">
<feFlood flood-opacity="0" result="BackgroundImageFix"/>
<feColorMatrix in="SourceAlpha" type="matrix" values="0 0 0 0 0 0 0 0 0 0 0 0 0 0 0 0 0 0 127 0"/>
<feOffset dy="2"/>
<feGaussianBlur stdDeviation="6"/>
<feColorMatrix type="matrix" values="0 0 0 0 1 0 0 0 0 0.895833 0 0 0 0 0.479167 0 0 0 0.95 0"/>
<feBlend mode="normal" in2="BackgroundImageFix" result="effect1_dropShadow"/>
<feBlend mode="normal" in="SourceGraphic" in2="effect1_dropShadow" result="shape"/>
</filter>
</defs>
</svg>
