<svg width="488" height="174" viewBox="0 0 488 174" fill="none" xmlns="http://www.w3.org/2000/svg">
<path d="M0 106.967C0 84.455 6.15713 67.1048 18.4714 54.9157C29.1794 44.3013 42.8024 38.9941 59.3405 38.9941C81.4704 38.9941 97.6512 46.1093 107.883 60.3395C113.535 68.3294 116.569 76.3485 116.985 84.3969L89.5016 84.3969C87.7171 78.215 85.4268 73.5491 82.6306 70.3999C77.6333 64.8011 70.2269 62.0017 60.4112 62.0017C50.4171 62.0017 42.5347 65.9675 36.7643 73.8991C30.9938 81.7728 28.1086 92.9412 28.1086 107.404C28.1086 121.868 31.1426 132.715 37.2105 139.947C43.3379 147.121 51.1012 150.708 60.5005 150.708C70.1377 150.708 77.4846 147.617 82.5411 141.434C85.3373 138.11 87.6572 133.124 89.5016 126.475H116.718C114.338 140.53 108.241 151.961 98.4248 160.768C88.6689 169.574 76.1461 173.977 60.8574 173.977C41.9398 173.977 27.0675 168.029 16.2405 156.131C5.41351 144.175 0 127.787 0 106.967Z" fill="#F2F2F2"/>
<path d="M175.406 72.8134C181.468 72.8134 186.959 73.8378 191.88 75.8869C196.861 77.9354 200.942 81.0669 204.123 85.2815C206.824 88.8524 208.474 92.54 209.074 96.3452C209.674 100.091 209.974 106.237 209.974 114.783V170.978L183.778 170.978L183.778 112.764C183.778 107.613 182.878 103.457 181.078 100.296C178.737 95.8474 174.296 93.623 167.755 93.623C160.974 93.623 155.812 95.8474 152.272 100.296C148.791 104.686 147.051 110.979 147.051 119.174L147.051 170.978H121.485L121.485 41.9941L147.051 41.9941V87.7402C150.771 82.1791 155.063 78.3156 159.923 76.1503C164.845 73.9256 170.006 72.8134 175.406 72.8134Z" fill="#F2F2F2"/>
<path d="M244.47 63.6355H231.721H218.973V40.4951L244.47 40.4951V63.6355ZM218.973 75.0735H244.47L244.47 170.979H218.973L218.973 75.0735Z" fill="#F2F2F2"/>
<path d="M363.713 73.4912C368.039 73.4912 372.306 74.308 376.513 75.9418C380.719 77.5746 384.535 80.434 387.961 84.5174C390.725 87.8429 392.588 91.9271 393.549 96.7691C394.15 99.9783 394.451 104.675 394.451 110.859L394.27 170.979L367.949 170.979V110.246C367.949 106.629 367.348 103.654 366.147 101.32C363.863 96.8862 359.656 94.6692 353.526 94.6692C346.435 94.6692 341.538 97.5277 338.833 103.245C337.451 106.279 336.76 109.925 336.76 114.184V170.979H310.889V114.184C310.889 108.525 310.288 104.412 309.086 101.845C306.923 97.2361 302.686 94.9318 296.377 94.9318C289.045 94.9318 284.117 97.2361 281.593 101.845C280.211 104.47 279.52 108.379 279.52 113.571V170.979H253.469L253.469 75.7665H278.438V89.681C281.623 84.7218 284.628 81.1918 287.452 79.092C292.44 75.3585 298.9 73.4912 306.832 73.4912C314.345 73.4912 320.414 75.0959 325.041 78.3042C328.767 81.2799 331.591 85.1007 333.515 89.7682C336.88 84.1675 341.057 80.0542 346.045 77.4292C351.333 74.8039 357.222 73.4912 363.713 73.4912Z" fill="#F2F2F2"/>
<path d="M440.886 93.9368C434.947 93.9368 430.327 95.7345 427.028 99.3306C423.788 102.927 421.748 107.799 420.909 113.947L460.774 113.947C460.354 107.393 458.285 102.434 454.565 99.0695C450.906 95.6477 446.346 93.9368 440.886 93.9368ZM440.886 73.4912C449.046 73.4912 456.395 74.9702 462.934 77.9281C469.473 80.8865 474.873 85.5557 479.133 91.9359C482.972 97.5619 485.462 104.087 486.602 111.511C487.261 115.861 487.531 122.126 487.412 130.304H420.278C420.639 139.816 423.728 146.486 429.547 150.314C433.087 152.693 437.347 153.882 442.327 153.882C447.605 153.882 451.895 152.432 455.195 149.531C456.995 147.966 458.584 145.79 459.964 143.006H486.152C485.492 148.632 482.462 154.346 477.062 160.146C468.663 169.368 456.905 173.979 441.787 173.979C429.308 173.979 418.299 170.093 408.759 162.32C399.22 154.548 394.451 141.904 394.451 124.388C394.451 107.974 398.74 95.3867 407.32 86.6289C415.959 77.8703 427.148 73.4912 440.886 73.4912Z" fill="#F2F2F2"/>
<path d="M230.971 65.9918C249.194 65.9918 263.967 51.219 263.967 32.9959C263.967 14.7728 249.194 0 230.971 0C212.748 0 197.975 14.7728 197.975 32.9959C197.975 51.219 212.748 65.9918 230.971 65.9918Z" fill="#F2F2F2"/>
</svg>
