<svg width="1768" height="820" viewBox="0 0 1768 820" fill="none" xmlns="http://www.w3.org/2000/svg">
<g filter="url(#filter0_d)">
<circle cx="883" cy="-53" r="853" fill="url(#paint0_linear)"/>
</g>
<g style="mix-blend-mode:overlay">
<circle cx="883" cy="-24.4301" r="538.737" fill="url(#paint1_linear)"/>
</g>
<g style="mix-blend-mode:hard-light">
<circle cx="883" cy="-24.4312" r="355.077" fill="url(#paint2_linear)"/>
</g>
<g style="mix-blend-mode:soft-light">
<circle cx="880.959" cy="-55.0411" r="662.218" stroke="url(#paint3_linear)" stroke-width="2"/>
</g>
<g style="mix-blend-mode:soft-light">
<circle cx="880.959" cy="-55.0413" r="686.706" stroke="url(#paint4_linear)" stroke-width="2"/>
</g>
<g style="mix-blend-mode:soft-light">
<circle cx="880.959" cy="-55.0406" r="711.194" stroke="url(#paint5_linear)" stroke-width="2"/>
</g>
<g style="mix-blend-mode:soft-light">
<circle cx="880.959" cy="-55.0394" r="735.682" stroke="url(#paint6_linear)" stroke-width="2"/>
</g>
<g style="mix-blend-mode:soft-light">
<circle cx="880.959" cy="-55.0421" r="760.17" stroke="url(#paint7_linear)" stroke-width="2"/>
</g>
<g style="mix-blend-mode:soft-light">
<circle cx="880.959" cy="-55.0408" r="784.658" stroke="url(#paint8_linear)" stroke-width="2"/>
</g>
<g style="mix-blend-mode:soft-light">
<circle cx="880.959" cy="-55.0401" r="809.146" stroke="url(#paint9_linear)" stroke-width="2"/>
</g>
<g style="mix-blend-mode:soft-light">
<circle cx="880.959" cy="-55.0408" r="833.634" stroke="url(#paint10_linear)" stroke-width="2"/>
</g>
<g style="mix-blend-mode:screen" opacity="0.4">
<path d="M884.139 357.475L1147.3 349.12C1155.43 348.862 1163.11 345.314 1168.57 339.288L1740.66 -291.522" stroke="url(#paint11_linear)" stroke-width="20"/>
</g>
<circle cx="882.293" cy="354.06" r="34.7201" transform="rotate(-1.81856 882.293 354.06)" fill="#F2F2F2"/>
<g style="mix-blend-mode:soft-light" filter="url(#filter1_f)">
<path d="M1736 -53.0024C1736 96.5051 1697.54 237.029 1629.96 359.213C883 71.4788 1629.96 359.213 883 71.4788C136.036 359.213 866.675 71.4788 136.036 359.213C68.4638 237.029 30 96.5051 30 -53.0024C30 -250.375 97.0348 -432.09 209.579 -576.624C870.756 -148.914 209.579 -576.624 883 -148.914C1640.89 -444.811 883 -148.914 1640.89 -444.811C1701.67 -327.487 1736 -194.254 1736 -53.0024Z" fill="url(#paint12_linear)"/>
</g>
<path d="M650 426.967C650 404.455 656.157 387.105 668.471 374.916C679.179 364.301 692.802 358.994 709.34 358.994C731.47 358.994 747.651 366.109 757.883 380.34C763.535 388.329 766.569 396.348 766.985 404.397H739.502C737.717 398.215 735.427 393.549 732.631 390.4C727.633 384.801 720.227 382.002 710.411 382.002C700.417 382.002 692.535 385.967 686.764 393.899C680.994 401.773 678.109 412.941 678.109 427.404C678.109 441.868 681.143 452.715 687.21 459.947C693.338 467.121 701.101 470.708 710.5 470.708C720.138 470.708 727.485 467.617 732.541 461.434C735.337 458.11 737.657 453.124 739.502 446.475H766.718C764.338 460.53 758.241 471.961 748.425 480.768C738.669 489.574 726.146 493.977 710.857 493.977C691.94 493.977 677.068 488.029 666.241 476.131C655.414 464.175 650 447.787 650 426.967Z" fill="#F2F2F2"/>
<path d="M825.406 392.813C831.468 392.813 836.959 393.838 841.88 395.887C846.861 397.935 850.942 401.067 854.123 405.281C856.824 408.852 858.474 412.54 859.074 416.345C859.674 420.091 859.974 426.237 859.974 434.783V490.978H833.778V432.764C833.778 427.613 832.878 423.457 831.078 420.296C828.737 415.847 824.296 413.623 817.755 413.623C810.974 413.623 805.812 415.847 802.272 420.296C798.791 424.686 797.051 430.979 797.051 439.174V490.978H771.485V361.994H797.051V407.74C800.771 402.179 805.063 398.316 809.923 396.15C814.845 393.926 820.006 392.813 825.406 392.813Z" fill="#F2F2F2"/>
<path d="M894.47 383.636H881.721H868.973V360.495H894.47V383.636ZM868.973 395.073H894.47V490.979H868.973V395.073Z" fill="#F2F2F2"/>
<path d="M1013.71 393.491C1018.04 393.491 1022.31 394.308 1026.51 395.942C1030.72 397.575 1034.54 400.434 1037.96 404.517C1040.72 407.843 1042.59 411.927 1043.55 416.769C1044.15 419.978 1044.45 424.675 1044.45 430.859L1044.27 490.979H1017.95V430.246C1017.95 426.629 1017.35 423.654 1016.15 421.32C1013.86 416.886 1009.66 414.669 1003.53 414.669C996.435 414.669 991.538 417.528 988.833 423.245C987.451 426.279 986.76 429.925 986.76 434.184V490.979H960.889V434.184C960.889 428.525 960.288 424.412 959.086 421.845C956.923 417.236 952.686 414.932 946.377 414.932C939.045 414.932 934.117 417.236 931.593 421.845C930.211 424.47 929.52 428.379 929.52 433.571V490.979H903.469V395.766H928.438V409.681C931.623 404.722 934.628 401.192 937.452 399.092C942.44 395.358 948.9 393.491 956.832 393.491C964.345 393.491 970.414 395.096 975.041 398.304C978.767 401.28 981.591 405.101 983.515 409.768C986.88 404.168 991.057 400.054 996.045 397.429C1001.33 394.804 1007.22 393.491 1013.71 393.491Z" fill="#F2F2F2"/>
<path d="M1090.89 413.937C1084.95 413.937 1080.33 415.734 1077.03 419.331C1073.79 422.927 1071.75 427.799 1070.91 433.947H1110.77C1110.35 427.393 1108.28 422.434 1104.57 419.07C1100.91 415.648 1096.35 413.937 1090.89 413.937ZM1090.89 393.491C1099.05 393.491 1106.39 394.97 1112.93 397.928C1119.47 400.886 1124.87 405.556 1129.13 411.936C1132.97 417.562 1135.46 424.087 1136.6 431.511C1137.26 435.861 1137.53 442.126 1137.41 450.304H1070.28C1070.64 459.816 1073.73 466.486 1079.55 470.314C1083.09 472.693 1087.35 473.882 1092.33 473.882C1097.61 473.882 1101.9 472.432 1105.19 469.531C1107 467.966 1108.58 465.79 1109.96 463.006H1136.15C1135.49 468.632 1132.46 474.346 1127.06 480.146C1118.66 489.368 1106.9 493.979 1091.79 493.979C1079.31 493.979 1068.3 490.093 1058.76 482.32C1049.22 474.548 1044.45 461.904 1044.45 444.388C1044.45 427.974 1048.74 415.387 1057.32 406.629C1065.96 397.87 1077.15 393.491 1090.89 393.491Z" fill="#F2F2F2"/>
<path d="M880.971 385.992C899.194 385.992 913.967 371.219 913.967 352.996C913.967 334.773 899.194 320 880.971 320C862.748 320 847.975 334.773 847.975 352.996C847.975 371.219 862.748 385.992 880.971 385.992Z" fill="#F2F2F2"/>
<defs>
<filter id="filter0_d" x="15" y="-916" width="1736" height="1736" filterUnits="userSpaceOnUse" color-interpolation-filters="sRGB">
<feFlood flood-opacity="0" result="BackgroundImageFix"/>
<feColorMatrix in="SourceAlpha" type="matrix" values="0 0 0 0 0 0 0 0 0 0 0 0 0 0 0 0 0 0 127 0"/>
<feOffset dy="5"/>
<feGaussianBlur stdDeviation="7.5"/>
<feColorMatrix type="matrix" values="0 0 0 0 0.0392157 0 0 0 0 0.0156863 0 0 0 0 0.917647 0 0 0 0.33 0"/>
<feBlend mode="normal" in2="BackgroundImageFix" result="effect1_dropShadow"/>
<feBlend mode="normal" in="SourceGraphic" in2="effect1_dropShadow" result="shape"/>
</filter>
<filter id="filter1_f" x="0" y="-606.624" width="1766" height="995.837" filterUnits="userSpaceOnUse" color-interpolation-filters="sRGB">
<feFlood flood-opacity="0" result="BackgroundImageFix"/>
<feBlend mode="normal" in="SourceGraphic" in2="BackgroundImageFix" result="shape"/>
<feGaussianBlur stdDeviation="15" result="effect1_foregroundBlur"/>
</filter>
<linearGradient id="paint0_linear" x1="883" y1="-906" x2="883" y2="800" gradientUnits="userSpaceOnUse">
<stop stop-color="#F733EE"/>
<stop offset="1" stop-color="#0102EA"/>
</linearGradient>
<linearGradient id="paint1_linear" x1="883" y1="-563.167" x2="883" y2="514.307" gradientUnits="userSpaceOnUse">
<stop stop-color="#F136EE"/>
<stop offset="1" stop-color="#FB5154"/>
</linearGradient>
<linearGradient id="paint2_linear" x1="883" y1="-379.508" x2="883" y2="330.645" gradientUnits="userSpaceOnUse">
<stop stop-color="#FADE3E"/>
<stop offset="1" stop-color="#EC4277"/>
</linearGradient>
<linearGradient id="paint3_linear" x1="880.959" y1="-718.259" x2="880.959" y2="608.177" gradientUnits="userSpaceOnUse">
<stop stop-color="#F136EE"/>
<stop offset="1" stop-color="#FB5154"/>
</linearGradient>
<linearGradient id="paint4_linear" x1="880.959" y1="-742.747" x2="880.959" y2="632.665" gradientUnits="userSpaceOnUse">
<stop stop-color="#F136EE"/>
<stop offset="1" stop-color="#FB5154"/>
</linearGradient>
<linearGradient id="paint5_linear" x1="880.959" y1="-767.234" x2="880.959" y2="657.153" gradientUnits="userSpaceOnUse">
<stop stop-color="#F136EE"/>
<stop offset="1" stop-color="#FB5154"/>
</linearGradient>
<linearGradient id="paint6_linear" x1="880.959" y1="-791.721" x2="880.959" y2="681.642" gradientUnits="userSpaceOnUse">
<stop stop-color="#F136EE"/>
<stop offset="1" stop-color="#FB5154"/>
</linearGradient>
<linearGradient id="paint7_linear" x1="880.959" y1="-816.212" x2="880.959" y2="706.128" gradientUnits="userSpaceOnUse">
<stop stop-color="#F136EE"/>
<stop offset="1" stop-color="#FB5154"/>
</linearGradient>
<linearGradient id="paint8_linear" x1="880.959" y1="-840.699" x2="880.959" y2="730.617" gradientUnits="userSpaceOnUse">
<stop stop-color="#F136EE"/>
<stop offset="1" stop-color="#FB5154"/>
</linearGradient>
<linearGradient id="paint9_linear" x1="880.959" y1="-865.186" x2="880.959" y2="755.106" gradientUnits="userSpaceOnUse">
<stop stop-color="#F136EE"/>
<stop offset="1" stop-color="#FB5154"/>
</linearGradient>
<linearGradient id="paint10_linear" x1="880.959" y1="-889.675" x2="880.959" y2="779.593" gradientUnits="userSpaceOnUse">
<stop stop-color="#F136EE"/>
<stop offset="1" stop-color="#FB5154"/>
</linearGradient>
<linearGradient id="paint11_linear" x1="1302.54" y1="-277.612" x2="1322.26" y2="343.565" gradientUnits="userSpaceOnUse">
<stop stop-color="#F136EE"/>
<stop offset="1" stop-color="#FB5154"/>
</linearGradient>
<linearGradient id="paint12_linear" x1="883" y1="-576.624" x2="883" y2="359.213" gradientUnits="userSpaceOnUse">
<stop stop-color="#F733EE"/>
<stop offset="1" stop-color="#0102EA"/>
</linearGradient>
</defs>
</svg>
