<svg width="144" height="1080" viewBox="0 0 144 1080" fill="none" xmlns="http://www.w3.org/2000/svg">
<g filter="url(#filter0_d)">
<rect x="92" y="920" width="40" height="160" fill="#FF3B30"/>
<rect x="111.13" y="920" width="8.69565" height="160" fill="#FF3B30"/>
<rect x="121.565" y="920" width="8.69565" height="160" fill="#FF3B30"/>
</g>
<g filter="url(#filter1_d)">
<rect x="12" y="920" width="40" height="160" fill="#FFCC00"/>
<rect x="22.4348" y="920" width="8.69565" height="160" fill="#FFCC00"/>
<rect x="32.8696" y="920" width="8.69565" height="160" fill="#FFCC00"/>
<rect x="43.3044" y="920" width="8.69565" height="160" fill="#FFCC00"/>
</g>
<g filter="url(#filter2_d)">
<rect x="92" width="40" height="160" fill="#4CD964"/>
</g>
<g filter="url(#filter3_d)">
<rect x="12" width="40" height="160" fill="#2D9CDB"/>
</g>
<path fill-rule="evenodd" clip-rule="evenodd" d="M53.3232 873.323C53.3232 861.547 43.7764 852 31.9998 852C20.2233 852 10.6765 861.547 10.6765 873.323C10.6765 885.1 20.2233 894.647 31.9998 894.647C43.7764 894.647 53.3232 885.1 53.3232 873.323ZM13.6177 873.323C13.6177 863.171 21.8476 854.941 31.9998 854.941C42.152 854.941 50.382 863.171 50.382 873.323C50.382 883.476 42.152 891.706 31.9998 891.706C21.8476 891.706 13.6177 883.476 13.6177 873.323Z" fill="#F2F2F2"/>
<path fill-rule="evenodd" clip-rule="evenodd" d="M24.1587 873.769L7.2859 896.716C6.80478 897.371 6.94519 898.291 7.59952 898.772C8.25385 899.253 9.17432 899.113 9.65544 898.459L26.5286 875.511C26.6351 875.523 26.7433 875.529 26.8529 875.529C28.4772 875.529 29.794 874.212 29.794 872.588C29.794 870.963 28.4772 869.646 26.8529 869.646C25.2285 869.646 23.9117 870.963 23.9117 872.588C23.9117 873.008 23.9999 873.408 24.1587 873.769Z" fill="#F2F2F2"/>
<path fill-rule="evenodd" clip-rule="evenodd" d="M37.4712 875.511L54.3444 898.459C54.8255 899.113 55.746 899.253 56.4003 898.772C57.0546 898.291 57.195 897.371 56.7139 896.716L39.8411 873.769C40 873.408 40.0881 873.008 40.0881 872.588C40.0881 870.963 38.7713 869.646 37.147 869.646C35.5226 869.646 34.2058 870.963 34.2058 872.588C34.2058 874.212 35.5226 875.529 37.147 875.529C37.2566 875.529 37.3648 875.523 37.4712 875.511Z" fill="#F2F2F2"/>
<defs>
<filter id="filter0_d" x="80" y="910" width="64" height="184" filterUnits="userSpaceOnUse" color-interpolation-filters="sRGB">
<feFlood flood-opacity="0" result="BackgroundImageFix"/>
<feColorMatrix in="SourceAlpha" type="matrix" values="0 0 0 0 0 0 0 0 0 0 0 0 0 0 0 0 0 0 127 0"/>
<feOffset dy="2"/>
<feGaussianBlur stdDeviation="6"/>
<feColorMatrix type="matrix" values="0 0 0 0 1 0 0 0 0 0.231373 0 0 0 0 0.188235 0 0 0 0.95 0"/>
<feBlend mode="normal" in2="BackgroundImageFix" result="effect1_dropShadow"/>
<feBlend mode="normal" in="SourceGraphic" in2="effect1_dropShadow" result="shape"/>
</filter>
<filter id="filter1_d" x="0" y="910" width="64.0001" height="184" filterUnits="userSpaceOnUse" color-interpolation-filters="sRGB">
<feFlood flood-opacity="0" result="BackgroundImageFix"/>
<feColorMatrix in="SourceAlpha" type="matrix" values="0 0 0 0 0 0 0 0 0 0 0 0 0 0 0 0 0 0 127 0"/>
<feOffset dy="2"/>
<feGaussianBlur stdDeviation="6"/>
<feColorMatrix type="matrix" values="0 0 0 0 1 0 0 0 0 0.895833 0 0 0 0 0.479167 0 0 0 0.95 0"/>
<feBlend mode="normal" in2="BackgroundImageFix" result="effect1_dropShadow"/>
<feBlend mode="normal" in="SourceGraphic" in2="effect1_dropShadow" result="shape"/>
</filter>
<filter id="filter2_d" x="80" y="-14" width="64" height="184" filterUnits="userSpaceOnUse" color-interpolation-filters="sRGB">
<feFlood flood-opacity="0" result="BackgroundImageFix"/>
<feColorMatrix in="SourceAlpha" type="matrix" values="0 0 0 0 0 0 0 0 0 0 0 0 0 0 0 0 0 0 127 0"/>
<feOffset dy="-2"/>
<feGaussianBlur stdDeviation="6"/>
<feColorMatrix type="matrix" values="0 0 0 0 0.298039 0 0 0 0 0.85098 0 0 0 0 0.392157 0 0 0 0.95 0"/>
<feBlend mode="normal" in2="BackgroundImageFix" result="effect1_dropShadow"/>
<feBlend mode="normal" in="SourceGraphic" in2="effect1_dropShadow" result="shape"/>
</filter>
<filter id="filter3_d" x="0" y="-14" width="64" height="184" filterUnits="userSpaceOnUse" color-interpolation-filters="sRGB">
<feFlood flood-opacity="0" result="BackgroundImageFix"/>
<feColorMatrix in="SourceAlpha" type="matrix" values="0 0 0 0 0 0 0 0 0 0 0 0 0 0 0 0 0 0 127 0"/>
<feOffset dy="-2"/>
<feGaussianBlur stdDeviation="6"/>
<feColorMatrix type="matrix" values="0 0 0 0 0.176471 0 0 0 0 0.611765 0 0 0 0 0.858824 0 0 0 0.95 0"/>
<feBlend mode="normal" in2="BackgroundImageFix" result="effect1_dropShadow"/>
<feBlend mode="normal" in="SourceGraphic" in2="effect1_dropShadow" result="shape"/>
</filter>
</defs>
</svg>
