<svg width="641" height="411" viewBox="0 0 641 411" fill="none" xmlns="http://www.w3.org/2000/svg">
<ellipse opacity="0.5" cx="541.961" cy="49.2416" rx="5.54821" ry="5.47897" transform="rotate(90 541.961 49.2416)" fill="#EAF362"/>
<ellipse opacity="0.5" cx="510.913" cy="49.2416" rx="5.54821" ry="5.47897" transform="rotate(90 510.913 49.2416)" fill="#EAF362"/>
<ellipse opacity="0.5" cx="510.913" cy="49.2416" rx="5.54821" ry="5.47897" transform="rotate(90 510.913 49.2416)" fill="#EAF362"/>
<ellipse opacity="0.5" cx="541.961" cy="84.3802" rx="5.54821" ry="5.47897" transform="rotate(90 541.961 84.3802)" fill="#EAF362"/>
<ellipse opacity="0.5" cx="510.913" cy="84.3802" rx="5.54821" ry="5.47897" transform="rotate(90 510.913 84.3802)" fill="#EAF362"/>
<ellipse opacity="0.5" cx="541.961" cy="117.67" rx="5.54821" ry="5.47897" transform="rotate(90 541.961 117.67)" fill="#EAF362"/>
<ellipse opacity="0.5" cx="510.913" cy="117.67" rx="5.54821" ry="5.47897" transform="rotate(90 510.913 117.67)" fill="#EAF362"/>
<ellipse opacity="0.5" cx="478.04" cy="49.2416" rx="5.54821" ry="5.47897" transform="rotate(90 478.04 49.2416)" fill="#EAF362"/>
<ellipse opacity="0.5" cx="446.992" cy="49.2416" rx="5.54821" ry="5.47897" transform="rotate(90 446.992 49.2416)" fill="#EAF362"/>
<ellipse opacity="0.5" cx="446.992" cy="49.2416" rx="5.54821" ry="5.47897" transform="rotate(90 446.992 49.2416)" fill="#EAF362"/>
<ellipse opacity="0.5" cx="478.04" cy="84.3802" rx="5.54821" ry="5.47897" transform="rotate(90 478.04 84.3802)" fill="#EAF362"/>
<ellipse opacity="0.5" cx="446.992" cy="84.3802" rx="5.54821" ry="5.47897" transform="rotate(90 446.992 84.3802)" fill="#EAF362"/>
<ellipse opacity="0.5" cx="478.04" cy="117.67" rx="5.54821" ry="5.47897" transform="rotate(90 478.04 117.67)" fill="#EAF362"/>
<ellipse opacity="0.5" cx="412.293" cy="49.2416" rx="5.54821" ry="5.47897" transform="rotate(90 412.293 49.2416)" fill="#EAF362"/>
<ellipse opacity="0.5" cx="576.661" cy="84.3802" rx="5.54821" ry="5.47897" transform="rotate(90 576.661 84.3802)" fill="#EAF362"/>
<ellipse opacity="0.5" cx="607.709" cy="117.67" rx="5.54821" ry="5.47897" transform="rotate(90 607.709 117.67)" fill="#EAF362"/>
<ellipse opacity="0.5" cx="576.661" cy="117.67" rx="5.54821" ry="5.47897" transform="rotate(90 576.661 117.67)" fill="#EAF362"/>
<ellipse opacity="0.5" cx="541.961" cy="152.806" rx="5.54821" ry="5.47897" transform="rotate(90 541.961 152.806)" fill="#EAF362"/>
<ellipse opacity="0.5" cx="510.913" cy="152.806" rx="5.54821" ry="5.47897" transform="rotate(90 510.913 152.806)" fill="#EAF362"/>
<ellipse opacity="0.5" cx="510.913" cy="152.806" rx="5.54821" ry="5.47897" transform="rotate(90 510.913 152.806)" fill="#EAF362"/>
<ellipse opacity="0.5" cx="541.961" cy="186.097" rx="5.54821" ry="5.47897" transform="rotate(90 541.961 186.097)" fill="#EAF362"/>
<ellipse opacity="0.5" cx="607.709" cy="152.806" rx="5.54821" ry="5.47897" transform="rotate(90 607.709 152.806)" fill="#EAF362"/>
<ellipse opacity="0.5" cx="576.661" cy="152.806" rx="5.54821" ry="5.47897" transform="rotate(90 576.661 152.806)" fill="#EAF362"/>
<ellipse opacity="0.5" cx="607.709" cy="186.097" rx="5.54821" ry="5.47897" transform="rotate(90 607.709 186.097)" fill="#EAF362"/>
<ellipse opacity="0.5" cx="576.661" cy="186.097" rx="5.54821" ry="5.47897" transform="rotate(90 576.661 186.097)" fill="#EAF362"/>
<ellipse opacity="0.5" cx="607.709" cy="221.236" rx="5.54821" ry="5.47897" transform="rotate(90 607.709 221.236)" fill="#EAF362"/>
<ellipse opacity="0.5" cx="576.661" cy="221.236" rx="5.54821" ry="5.47897" transform="rotate(90 576.661 221.236)" fill="#EAF362"/>
<ellipse opacity="0.5" cx="607.709" cy="117.67" rx="5.54821" ry="5.47897" transform="rotate(90 607.709 117.67)" fill="#EAF362"/>
<ellipse opacity="0.5" cx="607.709" cy="152.806" rx="5.54821" ry="5.47897" transform="rotate(90 607.709 152.806)" fill="#EAF362"/>
<ellipse opacity="0.5" cx="607.709" cy="152.806" rx="5.54821" ry="5.47897" transform="rotate(90 607.709 152.806)" fill="#EAF362"/>
<ellipse opacity="0.5" cx="607.709" cy="186.097" rx="5.54821" ry="5.47897" transform="rotate(90 607.709 186.097)" fill="#EAF362"/>
<ellipse opacity="0.5" cx="607.709" cy="221.236" rx="5.54821" ry="5.47897" transform="rotate(90 607.709 221.236)" fill="#EAF362"/>
<path d="M140.134 220.915C90.493 182.688 44.7297 65.1138 45.5102 34.8122C41.4364 -5.97854 62.7561 2.2365 100.122 45.3508C189.866 148.9 592.895 35.4104 638.098 130.144C660.343 176.762 511.235 167.816 466.118 337.573C437.689 444.541 202.185 268.698 140.134 220.915Z" fill="url(#paint0_linear)"/>
<ellipse opacity="0.5" cx="5.27125" cy="100.603" rx="5.27125" ry="5.33787" fill="#FFEE23"/>
<ellipse opacity="0.5" cx="5.27125" cy="130.853" rx="5.27125" ry="5.33787" fill="#FFEE23"/>
<ellipse opacity="0.5" cx="5.27125" cy="130.853" rx="5.27125" ry="5.33787" fill="#FFEE23"/>
<ellipse opacity="0.5" cx="38.656" cy="100.603" rx="5.27125" ry="5.33787" fill="#FFEE23"/>
<ellipse opacity="0.5" cx="38.656" cy="130.853" rx="5.27125" ry="5.33787" fill="#FFEE23"/>
<ellipse opacity="0.5" cx="70.283" cy="100.603" rx="5.27125" ry="5.33787" fill="#FFEE23"/>
<ellipse opacity="0.5" cx="70.283" cy="130.853" rx="5.27125" ry="5.33787" fill="#FFEE23"/>
<ellipse opacity="0.5" cx="5.27125" cy="162.879" rx="5.27125" ry="5.33787" fill="#FFEE23"/>
<ellipse opacity="0.5" cx="5.27125" cy="193.124" rx="5.27125" ry="5.33787" fill="#FFEE23"/>
<ellipse opacity="0.5" cx="5.27125" cy="193.124" rx="5.27125" ry="5.33787" fill="#FFEE23"/>
<ellipse opacity="0.5" cx="38.656" cy="162.879" rx="5.27125" ry="5.33787" fill="#FFEE23"/>
<ellipse opacity="0.5" cx="38.656" cy="193.124" rx="5.27125" ry="5.33787" fill="#FFEE23"/>
<ellipse opacity="0.5" cx="70.283" cy="162.879" rx="5.27125" ry="5.33787" fill="#FFEE23"/>
<ellipse opacity="0.5" cx="5.27125" cy="226.932" rx="5.27125" ry="5.33787" fill="#FFEE23"/>
<ellipse opacity="0.5" cx="38.656" cy="66.7949" rx="5.27125" ry="5.33787" fill="#FFEE23"/>
<ellipse opacity="0.5" cx="70.283" cy="36.5478" rx="5.27125" ry="5.33787" fill="#FFEE23"/>
<ellipse opacity="0.5" cx="70.283" cy="66.7949" rx="5.27125" ry="5.33787" fill="#FFEE23"/>
<ellipse opacity="0.5" cx="103.668" cy="100.603" rx="5.27125" ry="5.33787" fill="#FFEE23"/>
<ellipse opacity="0.5" cx="103.668" cy="130.853" rx="5.27125" ry="5.33787" fill="#FFEE23"/>
<ellipse opacity="0.5" cx="103.668" cy="130.853" rx="5.27125" ry="5.33787" fill="#FFEE23"/>
<ellipse opacity="0.5" cx="135.296" cy="100.603" rx="5.27125" ry="5.33787" fill="#FFEE23"/>
<ellipse opacity="0.5" cx="103.668" cy="36.5478" rx="5.27125" ry="5.33787" fill="#FFEE23"/>
<ellipse opacity="0.5" cx="103.668" cy="66.7949" rx="5.27125" ry="5.33787" fill="#FFEE23"/>
<ellipse opacity="0.5" cx="135.296" cy="36.5478" rx="5.27125" ry="5.33787" fill="#FFEE23"/>
<ellipse opacity="0.5" cx="135.296" cy="66.7949" rx="5.27125" ry="5.33787" fill="#FFEE23"/>
<ellipse opacity="0.5" cx="168.68" cy="36.5478" rx="5.27125" ry="5.33787" fill="#FFEE23"/>
<ellipse opacity="0.5" cx="168.68" cy="66.7949" rx="5.27125" ry="5.33787" fill="#FFEE23"/>
<ellipse opacity="0.5" cx="70.283" cy="36.5478" rx="5.27125" ry="5.33787" fill="#FFEE23"/>
<ellipse opacity="0.5" cx="103.668" cy="36.5478" rx="5.27125" ry="5.33787" fill="#FFEE23"/>
<ellipse opacity="0.5" cx="103.668" cy="36.5478" rx="5.27125" ry="5.33787" fill="#FFEE23"/>
<ellipse opacity="0.5" cx="135.296" cy="36.5478" rx="5.27125" ry="5.33787" fill="#FFEE23"/>
<ellipse opacity="0.5" cx="168.68" cy="36.5478" rx="5.27125" ry="5.33787" fill="#FFEE23"/>
<path fill-rule="evenodd" clip-rule="evenodd" d="M338.606 55.6193L319.228 27.9308C317.375 20.4791 315.019 14.2398 312.16 9.21263C311.121 8.01894 309.003 6.56151 309.292 11.4435C309.581 16.3254 310.681 20.4589 310.681 23.5073C310.681 24.5293 310.681 25.5512 309.659 26.5732C308.434 27.7987 304.348 26.329 313.106 34.1404L323.746 61.4134L338.606 55.6193Z" fill="#F2BD8B"/>
<path fill-rule="evenodd" clip-rule="evenodd" d="M402.386 81.4112C395.905 81.9786 390.267 81.0036 388.282 79.2648C383.371 74.9608 393.318 53.8413 401.815 47.8111C410.311 41.7809 434.579 49.4706 427.536 66.3317C425.112 72.136 420.287 75.9867 414.801 78.3655L406.219 111.066L388.184 102.018L402.386 81.4112Z" fill="#F2BD8B"/>
<path fill-rule="evenodd" clip-rule="evenodd" d="M404.578 45.274C405.234 44.3616 405.164 43.7169 410.531 42.9112C415.898 42.1056 423.952 42.0209 429.679 46.6902C437.111 52.7499 437.648 59.9699 439.52 64.2882C441.207 68.1811 443.982 69.9291 444.197 73.8166C444.411 77.704 440.972 86.8531 437.735 89.5525C433.27 93.276 428.535 92.5066 424.86 92.3809C418.558 92.1652 412.567 86.0468 412.598 85.5469C412.84 81.6804 410.048 69.0297 407.551 63.0503C405.715 58.6533 401.496 49.5561 404.578 45.274Z" fill="url(#paint1_linear)"/>
<mask id="mask0" mask-type="alpha" maskUnits="userSpaceOnUse" x="403" y="42" width="42" height="51">
<path fill-rule="evenodd" clip-rule="evenodd" d="M404.578 45.274C405.234 44.3616 405.164 43.7169 410.531 42.9112C415.898 42.1056 423.952 42.0209 429.679 46.6902C437.111 52.7499 437.648 59.9699 439.52 64.2882C441.207 68.1811 443.982 69.9291 444.197 73.8166C444.411 77.704 440.972 86.8531 437.735 89.5525C433.27 93.276 428.535 92.5066 424.86 92.3809C418.558 92.1652 412.567 86.0468 412.598 85.5469C412.84 81.6804 410.048 69.0297 407.551 63.0503C405.715 58.6533 401.496 49.5561 404.578 45.274Z" fill="white"/>
</mask>
<g mask="url(#mask0)">
<path fill-rule="evenodd" clip-rule="evenodd" d="M417.947 80.8978C431.993 74.4386 440.553 62.4446 440.553 62.4446L442.316 65.416C442.316 65.416 431.984 78.0321 417.947 80.8978ZM411.688 85.1797C431.926 79.7782 442.273 67.4882 442.273 67.4882L444.837 69.8986C444.837 69.8986 432.847 83.431 411.688 85.1797Z" fill="black" fill-opacity="0.2"/>
</g>
<path fill-rule="evenodd" clip-rule="evenodd" d="M400.812 164.097L379.013 286.25L366.219 387.371L356.711 390.998L362.24 178.811L400.812 164.097Z" fill="#F5D1AF"/>
<path fill-rule="evenodd" clip-rule="evenodd" d="M367.819 381.58C368.663 380.769 370.023 380.765 370.779 381.659C371.935 383.026 373.442 384.951 373.919 386.215C374.726 388.358 375.56 392.737 375.56 392.737C373.073 393.674 330.861 409.577 330.861 409.577C330.861 409.577 326.95 404.476 330.531 402.602C334.112 400.729 336.455 399.424 336.455 399.424L353.632 382.45C354.032 382.055 354.681 382.067 355.065 382.479L357.513 385.099C357.513 385.099 361.599 385.41 363.771 384.592C365.008 384.126 366.641 382.712 367.819 381.58Z" fill="url(#paint2_linear)"/>
<path fill-rule="evenodd" clip-rule="evenodd" d="M373.459 369.199L353.032 370.577C353.032 370.577 351.511 329.497 352.702 279.012C353.893 228.527 358.812 180.12 358.812 180.12L410.604 160.362C410.604 160.362 407.458 220.422 398.123 272.087C388.788 323.751 373.459 369.199 373.459 369.199Z" fill="#333333"/>
<path fill-rule="evenodd" clip-rule="evenodd" d="M423.666 185.021C429.604 222.457 441.059 270.284 442.14 271.76C442.861 272.744 468.805 281.548 519.973 298.171L517.778 307.244C456.76 298.329 424.609 291.413 421.325 286.494C416.398 279.117 391.798 220.835 382.269 185.021H423.666Z" fill="#F5D1AF"/>
<path fill-rule="evenodd" clip-rule="evenodd" d="M501.987 290.327L498.121 304.941C452.483 308.994 424.52 306.066 414.231 296.155C403.942 286.244 392.216 249.199 379.053 185.021H431.828C440.168 237.575 444.831 264.954 445.816 267.16C446.801 269.366 465.525 277.089 501.987 290.327Z" fill="#4F4F4F"/>
<path fill-rule="evenodd" clip-rule="evenodd" d="M516.258 296.886C515.998 295.755 516.682 294.595 517.825 294.395C519.585 294.088 522.013 293.759 523.341 293.993C525.584 294.389 529.754 295.908 529.754 295.908C529.288 298.555 521.367 343.485 521.367 343.485C521.367 343.485 515.012 344.276 515.236 340.196C515.459 336.116 515.538 333.405 515.538 333.405L509.776 309.716C509.644 309.173 509.982 308.628 510.527 308.505L514.024 307.713C514.024 307.713 516.373 304.314 516.78 302.001C517.014 300.673 516.629 298.497 516.258 296.886Z" fill="url(#paint3_linear)"/>
<path fill-rule="evenodd" clip-rule="evenodd" d="M446.51 156.685C446.51 156.685 448.16 223.479 449.784 228.913C450.579 231.57 458.209 240.492 463.653 245.766C465.838 247.884 464.46 249.912 463.434 250.343C455.088 253.849 451.016 247.429 444.967 243.266C438.339 238.704 437.384 248.375 432.113 244.862C434.509 241.172 439.803 234.442 438.664 229.27C437.904 225.823 428.222 153.773 428.222 153.773L446.51 156.685Z" fill="#F2BD8B"/>
<path fill-rule="evenodd" clip-rule="evenodd" d="M405.716 131.995L408.026 124.852C369.274 107.453 350.331 44.1861 335.747 38.3557C330.399 36.2176 327.012 39.8346 325.626 37.5115L317.335 46.028C318.965 47.9103 315.055 50.8553 316.396 58.3844C317.738 65.9136 357.846 125.052 405.716 131.995Z" fill="#36B74C"/>
<path fill-rule="evenodd" clip-rule="evenodd" d="M412.757 88.485C414.957 88.6865 416.575 90.6331 416.371 92.8327L415.961 97.2463C427.694 109.881 456.39 147.051 455.537 207.625C455.448 213.959 453.244 217.001 451.483 219.431C450.279 221.093 449.282 222.469 449.31 224.418L436.497 225.851C436.725 224.452 435.355 223.137 433.586 221.44C431.015 218.972 427.602 215.697 427.042 210.187C426.502 204.878 425.526 198.177 424.274 190.696C422.559 199.97 419.444 208.249 414.504 214.709C402.294 230.676 351.354 202.671 348.617 183.904C347.156 173.89 352.737 166.593 360.119 156.942C369.267 144.982 381.18 129.408 385.882 100.568C385.875 100.392 385.879 100.213 385.896 100.033L386.815 90.1252C387.018 87.9255 388.967 86.3057 391.167 86.5072L412.757 88.485Z" fill="#4CD964"/>
<g style="mix-blend-mode:darken">
<path fill-rule="evenodd" clip-rule="evenodd" d="M420.033 155.341C420.033 155.341 422.077 177.824 424.121 191.11L423.099 199.286L420.033 205.418L417.712 197.002C413.914 183.234 414.729 168.601 420.033 155.341Z" fill="black" fill-opacity="0.1"/>
</g>
<path fill-rule="evenodd" clip-rule="evenodd" d="M275.222 71.2566L281.876 37.9954C280.592 30.4219 280.253 23.7507 280.858 17.9819C281.331 16.4648 282.62 12.3164 284.307 16.8992C285.994 21.482 286.847 24.1883 288.964 29.3335C289.388 31.9061 290.623 31.1857 293.199 31.4773C294.916 31.6717 294.892 35.765 289.955 41.1649L291.126 70.4651L275.222 71.2566Z" fill="#B28B67"/>
<path fill-rule="evenodd" clip-rule="evenodd" d="M209.301 106.531C215.521 108.33 221.203 108.464 223.477 107.147C229.132 103.871 223.451 81.1528 216.275 73.562C209.099 65.9713 183.784 68.7999 187.437 86.7621C188.699 92.9637 192.711 97.7034 197.657 101.117L199.74 134.866L219.224 129.476L209.301 106.531Z" fill="#B28B67"/>
<path fill-rule="evenodd" clip-rule="evenodd" d="M177.289 83.245C176.483 82.7877 175.889 81.981 175.354 81.2069C174.798 80.4028 174.249 79.5871 173.787 78.7178C172.865 76.981 172.272 74.8542 173.182 73.0558C173.912 71.6136 175.342 70.6617 176.762 70.1478C177.709 69.8054 178.74 69.6674 179.752 69.7187C180.757 69.7696 181.718 70.1588 182.714 70.2898C182.197 68.2863 181.958 66.1063 182.489 64.1266C182.999 62.2218 184.282 60.8774 185.965 60.15C187.692 59.4034 189.584 59.3372 191.435 59.7706C191.899 59.8792 192.361 59.9993 192.815 60.1545C193.195 60.2845 193.6 60.4556 194 60.4406C194.445 60.4241 194.585 60.1229 194.772 59.7397C194.99 59.2904 195.261 58.873 195.563 58.4859C196.898 56.7746 198.96 55.6524 201.112 55.8614C202.104 55.9577 203.138 56.3013 203.969 56.9387C204.71 57.507 205.412 58.5393 206.298 58.8327C206.675 58.9573 206.821 58.6139 207.053 58.3259C207.401 57.8932 207.719 57.4337 208.075 57.0081C208.574 56.4102 209.154 55.9058 209.824 55.5405C210.804 55.0058 212.268 54.6626 212.951 55.9657C213.208 56.4552 213.275 57.0359 213.384 57.5705C213.534 58.3046 213.681 59.039 213.818 59.7754C213.922 60.3345 214.008 60.8783 214.054 61.4428C214.079 61.7437 214.056 62.3238 214.257 62.5765C214.507 62.8923 215.151 62.4952 215.454 62.4249C216.051 62.2861 216.674 62.2266 217.29 62.3305C217.768 62.411 218.294 62.5784 218.608 63.019C218.801 63.2896 218.858 63.6068 218.892 63.9308C218.932 64.3197 219.058 64.4971 219.208 64.8593C219.892 64.2452 222.399 62.608 223.143 63.9483C223.39 64.3946 223.277 65.0074 223.189 65.466C223.033 66.2703 222.752 67.0441 222.452 67.7907C221.827 69.3482 220.962 70.7816 219.964 72.0789C221.624 72.3334 222.55 74.1823 221.594 75.7011C221.172 76.3717 220.445 76.6962 219.723 76.8603C219.459 76.9203 219.056 76.9231 218.863 77.0257C218.76 77.0808 218.668 77.208 218.518 77.2608C217.532 77.6083 216.33 77.6776 215.285 77.7242C213.424 77.8072 211.535 77.4281 209.828 76.5269C209.391 76.2958 209.052 76.1868 208.586 76.3208C208.178 76.4383 207.807 76.6628 207.401 76.7864C206.326 77.1138 205.203 76.8494 204.099 76.7717C204.417 78.16 204.448 79.7772 204.234 81.1645C204.059 82.2958 203.153 82.7036 202.248 83.049C199.354 84.1536 196.284 84.6636 193.309 85.491C196.372 85.3516 199.424 84.7992 202.493 84.7831C203.881 84.7758 203.138 85.9269 202.755 86.6885C202.124 87.9427 201.792 89.372 201.685 90.8106C199.763 89.3453 196.934 88.8121 194.884 89.9924C192.62 91.2966 191.824 95.1015 194.046 97.0642C195.335 98.2035 197.119 98.2878 198.644 98.5086C197.891 99.9162 198.09 101.633 197.834 103.195C197.708 103.966 197.48 104.861 196.841 105.294C196.605 105.455 196.302 105.547 196.155 105.818C195.974 106.154 195.996 106.468 195.733 106.786C194.688 108.057 192.641 108.547 191.161 107.676C189.823 106.889 189.623 105.112 190.191 103.781C188.647 103.581 185.92 103.53 185.867 101.202C182.815 101.83 174.18 98.9342 177.21 94.2347C174.654 93.5855 171.775 91.0674 172.442 87.961C172.955 85.5689 175.236 83.9322 177.289 83.245Z" fill="#191847"/>
<path fill-rule="evenodd" clip-rule="evenodd" d="M180.268 203.841C181.795 224.945 280.163 287.077 280.737 288.82C281.12 289.982 250.119 362.295 250.119 362.295L258.718 365.679C258.718 365.679 306.268 289.094 303.825 280.934C300.328 269.25 227.503 204.066 227.503 204.066L180.268 203.841Z" fill="#B28B67"/>
<path fill-rule="evenodd" clip-rule="evenodd" d="M252.382 351.409L266.421 356.584C296.024 322.761 307.627 294.853 305.512 280.634C303.396 266.415 229.453 203.894 229.453 203.894L179.262 203.894C180.974 252.767 272.149 289.007 273.368 291.09C274.588 293.173 262.586 313.57 252.382 351.409Z" fill="#56CCF2"/>
<path fill-rule="evenodd" clip-rule="evenodd" d="M241.464 369.225L246.386 357.933C246.642 357.345 247.378 357.146 247.926 357.479C254.308 361.357 264.84 361.519 264.84 361.519C271.801 371.57 284.097 379.58 288.849 382.443C289.88 383.064 290.176 384.44 289.472 385.415L287.192 388.571L258.76 378.222L242.175 372.186L241.464 369.225Z" fill="url(#paint4_linear)"/>
<path fill-rule="evenodd" clip-rule="evenodd" d="M191.579 203.842L147.758 310.371L104.69 400.432H114.851L226.022 203.842H191.579Z" fill="#997659"/>
<path fill-rule="evenodd" clip-rule="evenodd" d="M101.814 406.222L102.578 393.756C102.617 393.114 103.244 392.675 103.874 392.802C111.197 394.279 121.144 390.786 121.144 390.786C131.13 397.949 145.438 401.313 150.873 402.389C152.049 402.622 152.795 403.808 152.472 404.962L151.399 408.794H121.144H103.495L101.814 406.222Z" fill="url(#paint5_linear)"/>
<path fill-rule="evenodd" clip-rule="evenodd" d="M108.579 381.723L131.157 386.011C148.615 360.02 221.676 253.452 229.686 203.842H179.421C152.671 239.705 125.22 355.303 108.579 381.723Z" fill="#2D9CDB"/>
<path fill-rule="evenodd" clip-rule="evenodd" d="M120.673 197.908C120.673 197.908 96.8294 242.17 92.855 246.184C90.9119 248.146 79.9994 252.376 72.7227 254.433C69.802 255.259 70.073 257.7 70.7787 258.568C76.5192 265.624 83.117 261.905 90.4098 261.115C98.3996 260.249 94.7264 269.22 101.027 268.632C100.632 264.243 99.0961 255.799 102.519 251.786C104.801 249.11 137.399 203.761 137.399 203.761L120.673 197.908Z" fill="#B28B67"/>
<path fill-rule="evenodd" clip-rule="evenodd" d="M201.777 149.345L199.482 142.19C218.806 111.548 261.824 93.8053 280.678 56.9566L291.662 63.5439C292.883 122.482 240.512 144.834 201.777 149.345Z" fill="url(#paint6_linear)"/>
<path fill-rule="evenodd" clip-rule="evenodd" d="M174.642 214.133C174.642 214.133 218.684 214.133 239.435 214.133C242.395 214.133 241.837 209.804 241.409 207.619C236.47 182.408 217.188 155.23 217.188 119.342L198.499 116.374C183.041 141.55 177.695 172.547 174.642 214.133Z" fill="url(#paint7_linear)"/>
<path fill-rule="evenodd" clip-rule="evenodd" d="M172.103 139.283C170.781 138.453 169.624 137.253 168.715 135.592C161.884 123.111 164.351 116.239 171.651 113.98C175.665 112.738 179.44 113.586 183.96 114.601C187.659 115.431 191.857 116.374 197.092 116.374C197.598 116.374 198.058 116.408 198.476 116.474L204.681 116.832C204.681 116.832 229.86 203.247 218.57 232.141H160.246C161.58 211.767 167.021 189.698 173.85 169.508C154.811 192.884 131.406 220.026 116.46 231.742L103.613 226.38C120.07 182.107 149.643 154.696 172.103 139.283Z" fill="url(#paint8_linear)"/>
<path fill-rule="evenodd" clip-rule="evenodd" d="M163.633 232.61C167.454 223.317 171.372 212.471 175.143 201.27C176.546 213.605 178.883 225.995 182.775 232.61H163.633Z" fill="black" fill-opacity="0.1"/>
<defs>
<linearGradient id="paint0_linear" x1="342.681" y1="8.22656" x2="342.681" y2="371.505" gradientUnits="userSpaceOnUse">
<stop stop-color="#F733EE"/>
<stop offset="1" stop-color="#0102EA"/>
</linearGradient>
<linearGradient id="paint1_linear" x1="431.703" y1="47.2709" x2="411.743" y2="87.0503" gradientUnits="userSpaceOnUse">
<stop stop-color="#F136EE"/>
<stop offset="1" stop-color="#FB5154"/>
</linearGradient>
<linearGradient id="paint2_linear" x1="347.025" y1="384.492" x2="353.291" y2="401.127" gradientUnits="userSpaceOnUse">
<stop stop-color="#F733EE"/>
<stop offset="1" stop-color="#0102EA"/>
</linearGradient>
<linearGradient id="paint3_linear" x1="508.159" y1="316.54" x2="525.576" y2="319.61" gradientUnits="userSpaceOnUse">
<stop stop-color="#F733EE"/>
<stop offset="1" stop-color="#0102EA"/>
</linearGradient>
<linearGradient id="paint4_linear" x1="270.549" y1="363.597" x2="264.47" y2="380.3" gradientUnits="userSpaceOnUse">
<stop stop-color="#E3F02D"/>
<stop offset="1" stop-color="#66FC77"/>
</linearGradient>
<linearGradient id="paint5_linear" x1="127.219" y1="390.786" x2="127.219" y2="408.794" gradientUnits="userSpaceOnUse">
<stop stop-color="#E3F02D"/>
<stop offset="1" stop-color="#66FC77"/>
</linearGradient>
<linearGradient id="paint6_linear" x1="197.428" y1="105.677" x2="293.727" y2="100.261" gradientUnits="userSpaceOnUse">
<stop stop-color="#F136EE"/>
<stop offset="1" stop-color="#FB5154"/>
</linearGradient>
<linearGradient id="paint7_linear" x1="208.198" y1="116.374" x2="208.198" y2="214.133" gradientUnits="userSpaceOnUse">
<stop stop-color="#E3F02D"/>
<stop offset="1" stop-color="#66FC77"/>
</linearGradient>
<linearGradient id="paint8_linear" x1="162.547" y1="113.361" x2="162.547" y2="232.141" gradientUnits="userSpaceOnUse">
<stop stop-color="#F136EE"/>
<stop offset="1" stop-color="#FB5154"/>
</linearGradient>
</defs>
</svg>
